# xmcd
#
# Track frame offsets:
#	150
#	13315
#	27445
#	38562
#	49552
#	65502
#	77980
#	87697
#	101637
#	112112
#	124935
#	135975
#	147142
#
# Disc length: 2134 seconds
# Revision: 0
# Processed by: cddbd v1.5.2PL0 Copyright (c) Steve Scherf et al.
# Submitted via: dBpowerAMP V12.0
#
DISCID=b508540d
DTITLE=Leon Redbone - Sugar
DYEAR=1991
DGENRE=Blues
TTITLE0=Ghost of the St. Louis Blues
TTITLE1=Roll Along Kentucky Moon
TTITLE2=Right or Wrong
TTITLE3=Laughin' Blues
TTITLE4=Breeze
TTITLE5=The Whistling Colonel
TTITLE6=Sugar
TTITLE7=Pretty Baby
TTITLE8=When I Take My Sugar to Tea
TTITLE9=What You Want Me to Do?
TTITLE10=Messin' Around
TTITLE11=So, Relax
TTITLE12=14th Street Blues
EXTD=
EXTT0=
EXTT1=
EXTT2=
EXTT3=
EXTT4=
EXTT5=
EXTT6=
EXTT7=
EXTT8=
EXTT9=
EXTT10=
EXTT11=
EXTT12=
PLAYORDER=
